HIERARCHY
ROOT Hips
{
	OFFSET 0.000001 107.585541 -0.292875
	CHANNELS 6 Xposition Yposition Zposition Xrotation Yrotation Zrotation
	JOINT Spine
	{
		OFFSET -0.023067 13.156998 0.957426
		CHANNELS 6 Xposition Yposition Zposition Xrotation Yrotation Zrotation
		JOINT Spine1
		{
			OFFSET 0.000000 9.894669 0.072741
			CHANNELS 3 Xrotation Yrotation Zrotation
			JOINT Spine2
			{
				OFFSET 0.000000 10.499985 -0.058234
				CHANNELS 3 Xrotation Yrotation Zrotation
				JOINT Neck
				{
					OFFSET -0.000000 26.776306 -4.691216
					CHANNELS 6 Xposition Yposition Zposition Xrotation Yrotation Zrotation
					JOINT Head
					{
						OFFSET 0.000000 14.063217 3.449322
						CHANNELS 6 Xposition Yposition Zposition Xrotation Yrotation Zrotation
						JOINT HeadTop_End
						{
							OFFSET 0.000000 19.645248 2.611582
							CHANNELS 6 Xposition Yposition Zposition Xrotation Yrotation Zrotation
							End Site
							{
								OFFSET 0.000000 14.113129 0.000000
							}
						}
						JOINT L_Eye
						{
							OFFSET 3.570282 7.264572 7.838836
							CHANNELS 6 Xposition Yposition Zposition Xrotation Yrotation Zrotation
							End Site
							{
								OFFSET 0.000000 14.113129 0.000000
							}
						}
						JOINT R_Eye
						{
							OFFSET -3.524154 7.264282 7.838838
							CHANNELS 6 Xposition Yposition Zposition Xrotation Yrotation Zrotation
							End Site
							{
								OFFSET 0.000000 14.113129 0.000000
							}
						}
					}
				}
				JOINT L_Shoulder
				{
					OFFSET 7.980431 21.886398 -6.266449
					CHANNELS 6 Xposition Yposition Zposition Xrotation Yrotation Zrotation
					JOINT L_Arm
					{
						OFFSET 10.677479 -5.478394 -0.078065
						CHANNELS 3 Xrotation Yrotation Zrotation
						JOINT L_ForeArm
						{
							OFFSET 27.567778 0.000015 0.000000
							CHANNELS 3 Xrotation Yrotation Zrotation
							JOINT L_Hand
							{
								OFFSET 27.500092 -0.000015 0.480016
								CHANNELS 3 Xrotation Yrotation Zrotation
								JOINT L_HandThumb1
								{
									OFFSET 5.751503 -2.607742 4.214736
									CHANNELS 6 Xposition Yposition Zposition Xrotation Yrotation Zrotation
									JOINT L_HandThumb2
									{
										OFFSET 2.728218 -1.585464 1.645159
										CHANNELS 6 Xposition Yposition Zposition Xrotation Yrotation Zrotation
										JOINT L_HandThumb3
										{
											OFFSET 2.690651 -1.563644 1.622507
											CHANNELS 6 Xposition Yposition Zposition Xrotation Yrotation Zrotation
											JOINT L_HandThumb4
											{
												OFFSET 2.811111 -1.633636 1.695147
												CHANNELS 6 Xposition Yposition Zposition Xrotation Yrotation Zrotation
												End Site
												{
													OFFSET 2.811104 -1.633652 1.695142
												}
											}
										}
									}
								}
								JOINT L_HandIndex1
								{
									OFFSET 13.704086 -1.118973 2.963548
									CHANNELS 6 Xposition Yposition Zposition Xrotation Yrotation Zrotation
									JOINT L_HandIndex2
									{
										OFFSET 2.538002 -0.000046 0.044317
										CHANNELS 3 Xrotation Yrotation Zrotation
										JOINT L_HandIndex3
										{
											OFFSET 3.551018 0.000015 0.062044
											CHANNELS 3 Xrotation Yrotation Zrotation
											JOINT L_HandIndex4
											{
												OFFSET 3.082214 0.000031 0.053894
												CHANNELS 3 Xrotation Yrotation Zrotation
												End Site
												{
													OFFSET 3.082214 0.000046 0.053895
												}
											}
										}
									}
								}
								JOINT L_HandMiddle1
								{
									OFFSET 13.314011 -0.054794 0.195248
									CHANNELS 6 Xposition Yposition Zposition Xrotation Yrotation Zrotation
									JOINT L_HandMiddle2
									{
										OFFSET 4.054405 -0.000015 0.070800
										CHANNELS 3 Xrotation Yrotation Zrotation
										JOINT L_HandMiddle3
										{
											OFFSET 2.984230 -0.000031 0.052059
											CHANNELS 3 Xrotation Yrotation Zrotation
											JOINT L_HandMiddle4
											{
												OFFSET 3.040154 -0.000031 0.053016
												CHANNELS 3 Xrotation Yrotation Zrotation
												End Site
												{
													OFFSET 3.040154 0.000000 0.053016
												}
											}
										}
									}
								}
								JOINT L_HandRing1
								{
									OFFSET 12.889366 0.014862 -3.304775
									CHANNELS 6 Xposition Yposition Zposition Xrotation Yrotation Zrotation
									JOINT L_HandRing2
									{
										OFFSET 4.066383 0.000000 0.071006
										CHANNELS 3 Xrotation Yrotation Zrotation
										JOINT L_HandRing3
										{
											OFFSET 2.688652 0.000061 0.047021
											CHANNELS 3 Xrotation Yrotation Zrotation
											JOINT L_HandRing4
											{
												OFFSET 2.892899 0.000000 0.050566
												CHANNELS 3 Xrotation Yrotation Zrotation
												End Site
												{
													OFFSET 2.892906 0.000015 0.050566
												}
											}
										}
									}
								}
								JOINT L_HandPinky1
								{
									OFFSET 12.770164 -1.052109 -6.055603
									CHANNELS 6 Xposition Yposition Zposition Xrotation Yrotation Zrotation
									JOINT L_HandPinky2
									{
										OFFSET 3.092682 -0.000046 0.054011
										CHANNELS 3 Xrotation Yrotation Zrotation
										JOINT L_HandPinky3
										{
											OFFSET 2.176254 0.000031 0.038088
											CHANNELS 3 Xrotation Yrotation Zrotation
											JOINT L_HandPinky4
											{
												OFFSET 2.208496 -0.000031 0.038607
												CHANNELS 3 Xrotation Yrotation Zrotation
												End Site
												{
													OFFSET 2.208504 -0.000031 0.038607
												}
											}
										}
									}
								}
							}
						}
					}
				}
				JOINT R_Shoulder
				{
					OFFSET -7.980434 21.886810 -6.266449
					CHANNELS 6 Xposition Yposition Zposition Xrotation Yrotation Zrotation
					JOINT R_Arm
					{
						OFFSET -10.677509 -5.479004 -0.078070
						CHANNELS 3 Xrotation Yrotation Zrotation
						JOINT R_ForeArm
						{
							OFFSET -27.567785 0.000000 -0.000000
							CHANNELS 3 Xrotation Yrotation Zrotation
							JOINT R_Hand
							{
								OFFSET -27.500015 0.000000 0.480015
								CHANNELS 3 Xrotation Yrotation Zrotation
								JOINT R_HandThumb1
								{
									OFFSET -5.971848 -2.424500 3.942988
									CHANNELS 6 Xposition Yposition Zposition Xrotation Yrotation Zrotation
									JOINT R_HandThumb2
									{
										OFFSET -2.728195 -1.584976 1.645155
										CHANNELS 6 Xposition Yposition Zposition Xrotation Yrotation Zrotation
										JOINT R_HandThumb3
										{
											OFFSET -2.690704 -1.563995 1.622524
											CHANNELS 6 Xposition Yposition Zposition Xrotation Yrotation Zrotation
											JOINT R_HandThumb4
											{
												OFFSET -2.811142 -1.633011 1.695130
												CHANNELS 6 Xposition Yposition Zposition Xrotation Yrotation Zrotation
												End Site
												{
													OFFSET -2.811142 -1.632996 1.695138
												}
											}
										}
									}
								}
								JOINT R_HandIndex1
								{
									OFFSET -13.521736 -0.054581 0.198885
									CHANNELS 6 Xposition Yposition Zposition Xrotation Yrotation Zrotation
									JOINT R_HandIndex2
									{
										OFFSET -4.381210 0.000015 0.076519
										CHANNELS 3 Xrotation Yrotation Zrotation
										JOINT R_HandIndex3
										{
											OFFSET -3.478577 0.000031 0.060751
											CHANNELS 3 Xrotation Yrotation Zrotation
											JOINT R_HandIndex4
											{
												OFFSET -6.319054 -0.000015 0.110473
												CHANNELS 3 Xrotation Yrotation Zrotation
												End Site
												{
													OFFSET -6.319061 0.000015 0.110474
												}
											}
										}
									}
								}
								JOINT R_HandRing1
								{
									OFFSET -12.702789 0.785950 -3.722343
									CHANNELS 6 Xposition Yposition Zposition Xrotation Yrotation Zrotation
									JOINT R_HandRing2
									{
										OFFSET -4.066383 0.000000 0.070999
										CHANNELS 3 Xrotation Yrotation Zrotation
										JOINT R_HandRing3
										{
											OFFSET -2.688583 0.000015 0.047006
											CHANNELS 3 Xrotation Yrotation Zrotation
											JOINT R_HandRing4
											{
												OFFSET -2.892967 -0.000015 0.050556
												CHANNELS 3 Xrotation Yrotation Zrotation
												End Site
												{
													OFFSET -2.892960 0.000015 0.050555
												}
											}
										}
									}
								}
								JOINT R_HandPinky1
								{
									OFFSET -12.544357 -0.205673 -6.499258
									CHANNELS 6 Xposition Yposition Zposition Xrotation Yrotation Zrotation
									JOINT R_HandPinky2
									{
										OFFSET -3.092621 0.000000 0.053982
										CHANNELS 3 Xrotation Yrotation Zrotation
										JOINT R_HandPinky3
										{
											OFFSET -2.176262 0.000000 0.037988
											CHANNELS 3 Xrotation Yrotation Zrotation
											JOINT R_HandPinky4
											{
												OFFSET -2.208572 0.000000 0.038550
												CHANNELS 3 Xrotation Yrotation Zrotation
												End Site
												{
													OFFSET -2.208565 0.000000 0.038550
												}
											}
										}
									}
								}
							}
						}
					}
				}
			}
		}
	}
	JOINT L_UpLeg
	{
		OFFSET 10.121319 -5.316734 0.163048
		CHANNELS 6 Xposition Yposition Zposition Xrotation Yrotation Zrotation
		JOINT L_Leg
		{
			OFFSET -0.000002 -40.854481 0.206897
			CHANNELS 3 Xrotation Yrotation Zrotation
			JOINT L_Foot
			{
				OFFSET 0.000002 -52.055374 -3.073691
				CHANNELS 3 Xrotation Yrotation Zrotation
				JOINT L_ToeBase
				{
					OFFSET 1.169127 -9.354687 13.784521
					CHANNELS 6 Xposition Yposition Zposition Xrotation Yrotation Zrotation
					JOINT L_Toe_End
					{
						OFFSET 0.516993 -0.004916 8.312323
						CHANNELS 6 Xposition Yposition Zposition Xrotation Yrotation Zrotation
						End Site
						{
							OFFSET 0.516995 -0.004916 8.312323
						}
					}
				}
			}
		}
	}
	JOINT R_UpLeg
	{
		OFFSET -10.121301 -5.316544 0.163048
		CHANNELS 6 Xposition Yposition Zposition Xrotation Yrotation Zrotation
		JOINT R_Leg
		{
			OFFSET 0.000055 -40.854687 0.206898
			CHANNELS 3 Xrotation Yrotation Zrotation
			JOINT R_Foot
			{
				OFFSET -0.000054 -52.055359 -3.073693
				CHANNELS 3 Xrotation Yrotation Zrotation
				JOINT R_ToeBase
				{
					OFFSET -1.169123 -9.354716 13.784500
					CHANNELS 6 Xposition Yposition Zposition Xrotation Yrotation Zrotation
					JOINT R_Toe_End
					{
						OFFSET -0.516972 -0.004950 8.311937
						CHANNELS 6 Xposition Yposition Zposition Xrotation Yrotation Zrotation
						End Site
						{
							OFFSET -0.516973 -0.004951 8.311935
						}
					}
				}
			}
		}
	}
}
MOTION
Frames: 4
Frame Time: 0.033333
0.133529 47.860584 74.724236 0.113043 -1.531289 -2.267268 -0.023069 13.156996 0.957422 -9.543194 -8.771296 5.879820 -4.751174 -3.501577 2.335360 -4.817306 -3.365653 2.398712 0.000000 26.776327 -4.691210 -0.605026 -1.306032 5.102962 -0.000001 14.063225 3.449316 1.515905 -29.805467 30.212696 -0.000006 19.645248 2.611575 -0.000001 0.000002 0.000000 3.570283 7.264572 7.838830 -0.000000 0.000002 -0.000000 -3.524162 7.264282 7.838826 -0.000000 0.000002 -0.000000 7.980441 21.886387 -6.266435 -0.150324 -14.654311 -17.142813 1.409810 13.609246 -42.726112 1.435667 -38.931470 -17.327346 -10.730174 -16.085249 -13.692855 5.751531 -2.607727 4.214738 -1.425222 0.342849 14.472997 2.728225 -1.585463 1.645154 27.594849 30.847047 -11.608775 2.690657 -1.563659 1.622497 41.916465 -4.811753 9.194931 2.811103 -1.633631 1.695150 -0.000004 0.000007 -0.000005 13.704112 -1.118995 2.963543 -0.999801 4.958435 4.304346 4.790026 6.734105 -61.943402 3.233978 5.659281 -47.817198 -0.000000 -0.000004 0.000001 13.314019 -0.054766 0.195241 -0.996613 6.163498 8.408307 3.214029 7.113543 -57.279831 2.026460 4.846829 -38.447261 -0.000002 -0.000000 -0.000001 12.889379 0.014862 -3.304776 2.449481 11.488511 -17.025239 2.460690 5.940428 -47.073462 1.651605 4.489843 -34.864127 0.000001 -0.000001 0.000000 12.770180 -1.052092 -6.055612 0.896501 18.411262 11.523718 3.388469 5.900504 -49.185924 6.198024 6.600314 -68.929128 0.000001 0.000001 -0.000001 -7.980438 21.886797 -6.266448 5.847582 -15.727171 21.855219 10.256792 -34.787793 31.820035 207.314560 148.364071 -188.569174 -11.677856 -9.377094 7.867247 -5.971849 -2.424515 3.942978 -1.628686 -0.334500 -14.610852 -2.728205 -1.585010 1.645164 25.942834 -28.080299 9.734100 -2.690703 -1.564007 1.622507 42.476328 5.895978 -14.585924 -2.811156 -1.633023 1.695139 -0.000002 -0.000003 0.000002 -13.521736 -0.054578 0.198889 0.708227 -7.986355 -5.938638 4.538756 -6.332960 61.849569 2.928483 -5.207594 45.959984 0.000002 -0.000002 -0.000000 -12.702798 0.785937 -3.722339 4.703029 -12.991871 13.427280 2.603173 -5.827750 49.714396 2.003199 -4.758039 40.138440 -0.000002 0.000001 -0.000000 -12.544359 -0.205685 -6.499256 2.423393 -18.784144 -14.253419 3.429903 -5.642068 50.384318 7.288476 -6.374733 80.100586 0.000001 0.000003 -0.000001 10.121319 -5.316738 0.163046 0.820630 15.434382 29.213211 85.569860 50.634911 7.171524 -16.344721 2.173461 -9.672229 1.169129 -9.354696 13.784521 -18.264453 5.235866 -9.851864 0.516996 -0.004913 8.312321 -0.000001 0.000001 -0.000002 -10.121301 -5.316541 0.163054 -0.159997 -15.034332 -23.965616 76.265564 -61.598737 -13.964105 -15.395658 -0.156278 0.759590 -1.169122 -9.354714 13.784498 -4.088991 -4.649895 5.063054 -0.516972 -0.004952 8.311934 0.000003 -0.000000 0.000000 
0.466955 46.894218 77.531418 1.565620 -0.015665 -2.380957 -0.023069 13.157005 0.957419 -10.551280 -8.281320 5.239377 -5.036942 -3.319610 2.083212 -5.096168 -3.201947 2.123637 0.000002 26.776312 -4.691201 -0.229994 -1.940385 4.915720 -0.000005 14.063214 3.449320 4.755792 -34.279599 30.045486 -0.000007 19.645233 2.611590 0.000000 -0.000002 -0.000002 3.570284 7.264557 7.838845 0.000001 -0.000001 -0.000002 -3.524152 7.264282 7.838845 0.000001 -0.000001 -0.000002 7.980434 21.886391 -6.266432 -0.114742 -13.275636 -17.790573 0.725248 7.359515 -42.813654 -13.289445 -46.282407 -29.466628 -7.073022 -19.057100 -3.066052 5.751519 -2.607748 4.214741 -1.425220 0.342870 14.472978 2.728218 -1.585463 1.645168 27.233880 30.792009 -10.901656 2.690657 -1.563657 1.622510 42.873500 -5.309121 8.631531 2.811102 -1.633623 1.695150 -0.000002 0.000006 -0.000002 13.704103 -1.118993 2.963547 -1.407620 4.185281 4.431907 4.857871 6.758080 -62.604769 3.228123 5.661767 -47.899297 -0.000000 -0.000001 0.000001 13.314014 -0.054780 0.195245 -1.139970 6.172523 8.610397 3.163793 7.067480 -57.130475 1.973464 4.830433 -38.368219 0.000001 0.000001 -0.000000 12.889363 0.014849 -3.304777 2.500878 11.737712 -17.718894 2.520273 6.011822 -48.027179 1.604618 4.461131 -34.741081 0.000001 -0.000001 0.000000 12.770177 -1.052126 -6.055608 0.665018 17.676248 12.257892 3.463750 5.972886 -50.056800 6.124934 6.584205 -68.760648 -0.000001 -0.000003 -0.000001 -7.980435 21.886772 -6.266438 6.242480 -17.395411 22.762189 11.511494 -36.708210 27.572791 213.866733 146.326872 -181.435520 -10.665545 -13.064905 8.624466 -5.971848 -2.424515 3.942986 -1.439779 -0.120119 -14.647030 -2.728215 -1.584991 1.645151 24.693927 -26.155496 8.159697 -2.690722 -1.563981 1.622517 42.834763 5.929839 -21.108570 -2.811151 -1.632994 1.695149 -0.000003 -0.000003 0.000001 -13.521739 -0.054576 0.198884 0.056400 -6.563209 -6.079528 4.378173 -6.265389 60.489050 3.333641 -5.526526 50.183090 0.000003 0.000002 0.000001 -12.702802 0.785932 -3.722346 4.185999 -12.137659 12.683791 2.568304 -5.796065 49.341119 1.988533 -4.738231 39.920434 0.000001 -0.000001 -0.000000 -12.544353 -0.205680 -6.499256 2.510579 -18.857452 -13.982516 3.435707 -5.647613 50.473141 7.318799 -6.374892 80.362845 -0.000000 0.000001 0.000002 10.121321 -5.316723 0.163043 1.565295 16.691516 30.375531 81.838787 50.912927 8.183015 -16.532644 2.251650 -10.032756 1.169128 -9.354692 13.784524 -13.634210 3.943645 -5.305563 0.516994 -0.004915 8.312323 0.000001 -0.000000 0.000003 -10.121303 -5.316540 0.163042 2.421449 -17.836557 -24.265874 73.205332 -60.655556 -13.166928 -15.005886 -0.282518 1.482948 -1.169121 -9.354713 13.784501 -3.274458 -4.367129 4.379101 -0.516972 -0.004952 8.311935 0.000003 -0.000000 0.000000 
0.735977 45.761772 80.276939 3.806202 0.950631 -2.270783 -0.023067 13.157004 0.957418 -11.849660 -7.725942 4.668716 -5.403430 -3.106623 1.834602 -5.459152 -3.002415 1.845637 -0.000001 26.776299 -4.691208 0.037059 -2.545173 4.758477 -0.000010 14.063220 3.449329 7.249563 -38.494823 30.334475 -0.000012 19.645233 2.611583 0.000000 0.000000 0.000003 3.570271 7.264587 7.838832 0.000001 0.000001 0.000003 -3.524158 7.264297 7.838836 0.000001 0.000001 0.000003 7.980435 21.886396 -6.266443 -0.099319 -12.190024 -18.605522 1.048747 2.366414 -41.836620 -22.597327 -54.486188 -41.280345 -2.334378 -19.579301 9.634126 5.751515 -2.607744 4.214737 -1.425225 0.342872 14.472992 2.728243 -1.585463 1.645159 26.056313 29.588202 -9.398970 2.690658 -1.563649 1.622496 42.503833 -5.999125 9.777396 2.811101 -1.633619 1.695153 -0.000003 0.000001 -0.000002 13.704107 -1.118980 2.963538 -2.090257 2.667456 3.338155 4.876513 6.761745 -62.853518 3.267904 5.699744 -48.414939 -0.000000 0.000001 -0.000001 13.314037 -0.054768 0.195245 -1.488815 6.035507 7.763224 3.130178 7.037261 -57.126070 1.912730 4.791169 -38.051701 -0.000000 -0.000001 -0.000002 12.889377 0.014849 -3.304779 2.350445 11.569161 -19.627433 2.613026 6.112405 -49.280693 1.541083 4.398325 -34.288106 0.000001 0.000002 0.000001 12.770200 -1.052128 -6.055608 0.397331 16.816301 12.076891 3.535616 6.041300 -50.888280 5.998706 6.551518 -68.056688 0.000003 -0.000003 0.000003 -7.980435 21.886791 -6.266440 6.754777 -18.416381 22.816078 10.939607 -36.667505 22.272335 218.882537 144.908897 -170.177688 -10.136635 -15.199299 6.287167 -5.971843 -2.424519 3.942980 -1.044126 0.329965 -14.727068 -2.728197 -1.584999 1.645160 35.241348 -38.270144 21.036863 -2.690719 -1.563977 1.622511 39.241493 7.968427 -16.518287 -2.811154 -1.632994 1.695147 0.000000 0.000001 -0.000001 -13.521729 -0.054577 0.198883 0.561770 -7.849427 -2.953525 4.627999 -6.395254 62.931177 3.034427 -5.329472 47.482075 0.000005 0.000000 0.000003 -12.702792 0.785950 -3.722343 4.351096 -12.074831 17.396208 2.685904 -5.913370 50.781422 1.962242 -4.720072 39.714722 -0.000001 0.000000 0.000002 -12.544355 -0.205672 -6.499258 3.041912 -19.427918 -6.692180 3.328847 -5.600127 49.859534 6.916720 -6.344668 77.236455 0.000005 -0.000001 0.000002 10.121324 -5.316737 0.163044 1.855564 18.351135 31.327049 78.246886 51.224240 8.521955 -16.516801 2.155742 -9.938700 1.169127 -9.354695 13.784521 -10.587254 2.781046 -3.113254 0.516996 -0.004915 8.312323 0.000002 -0.000001 -0.000000 -10.121301 -5.316540 0.163043 4.055891 -19.793149 -24.530737 70.832484 -59.703510 -12.009583 -14.254128 -0.471906 2.595258 -1.169122 -9.354717 13.784501 -3.060599 -4.188330 4.171053 -0.516973 -0.004952 8.311937 0.000003 -0.000000 0.000000 
0.882412 44.450306 82.944145 6.681518 1.575741 -1.999153 -0.023068 13.156998 0.957413 -13.038909 -7.262151 3.954215 -5.707070 -2.950868 1.510363 -5.762212 -2.853859 1.492305 0.000002 26.776325 -4.691216 0.039862 -3.017010 4.723492 -0.000016 14.063219 3.449331 7.860866 -41.582895 30.483561 -0.000000 19.645248 2.611586 -0.000000 -0.000001 0.000003 3.570290 7.264587 7.838836 0.000000 0.000000 0.000003 -3.524148 7.264297 7.838837 0.000000 0.000000 0.000003 7.980433 21.886389 -6.266448 -0.100434 -11.350334 -19.574250 1.561894 -0.931637 -40.374095 -31.554224 -64.244616 -54.304239 0.719108 -17.127452 19.653149 5.751508 -2.607752 4.214732 -1.425221 0.342858 14.472986 2.728233 -1.585472 1.645169 24.525206 27.714351 -7.601509 2.690659 -1.563638 1.622505 41.231004 -6.723893 12.116254 2.811105 -1.633629 1.695149 -0.000001 0.000003 -0.000000 13.704104 -1.118996 2.963550 -2.817833 0.432332 3.347412 4.895806 6.766658 -63.084932 3.376804 5.787999 -49.559685 0.000001 0.000001 0.000000 13.314019 -0.054765 0.195239 -1.712605 5.807596 8.163190 3.121002 7.027916 -57.297391 1.865063 4.757537 -37.777841 0.000000 -0.000001 0.000001 12.889353 0.014838 -3.304774 1.496485 10.300097 -19.819478 2.748055 6.245556 -50.886077 1.497993 4.358482 -34.020902 0.000000 0.000002 -0.000000 12.770155 -1.052126 -6.055606 -0.284864 15.753823 14.143843 3.621157 6.115632 -51.819187 5.872065 6.514488 -67.234026 0.000002 -0.000003 0.000002 -7.980428 21.886795 -6.266457 6.768403 -18.159598 22.612188 12.539410 -35.198321 21.916409 220.338529 147.629935 -160.750852 -8.982322 -14.050871 3.070587 -5.971840 -2.424518 3.942979 -0.479434 0.974428 -14.851329 -2.728196 -1.585014 1.645163 39.554527 -41.627069 26.592107 -2.690712 -1.563983 1.622502 38.787125 7.472348 -2.119800 -2.811157 -1.633004 1.695145 -0.000002 -0.000002 0.000006 -13.521728 -0.054567 0.198878 -0.306170 -3.460158 -6.398552 5.671357 -6.774337 72.102912 2.585787 -4.993393 43.284087 0.000005 -0.000003 -0.000002 -12.702789 0.785947 -3.722349 2.487713 -10.628732 25.200654 3.219172 -6.359073 56.592448 1.929524 -4.707996 39.566746 -0.000001 -0.000000 0.000001 -12.544344 -0.205687 -6.499267 3.734907 -19.915167 6.834812 3.174422 -5.544868 49.141469 6.217950 -6.245885 71.854533 0.000003 0.000002 -0.000003 10.121315 -5.316733 0.163043 2.079825 19.973920 31.579161 74.547867 51.843892 8.473038 -16.049777 1.929056 -9.524956 1.169128 -9.354692 13.784527 -8.871663 1.781309 -2.169243 0.516996 -0.004913 8.312321 -0.000000 -0.000001 0.000001 -10.121304 -5.316533 0.163040 4.841695 -21.480931 -25.099560 69.125196 -57.982712 -10.521034 -13.357938 -0.882255 4.213143 -1.169123 -9.354712 13.784497 -2.128822 -3.979069 4.637381 -0.516973 -0.004952 8.311937 0.000003 -0.000000 -0.000000 
